<svg width="160" height="160" version="1.1" xmlns="http://www.w3.org/2000/svg" desc="Created with imagetracer.js version 1.2.6" ><path fill="rgb(2,3,1)" stroke="rgb(2,3,1)" stroke-width="1" opacity="0.30196078431372547" d="M 73.5 22 L 88.5 22 L 92 23.5 L 87.5 24 L 86.5 23 L 76.5 23 Q 75.3 25.3 70.5 24 L 70.5 23 L 73.5 22 Z " /><path fill="rgb(2,3,1)" stroke="rgb(2,3,1)" stroke-width="1" opacity="0.30196078431372547" d="M 62.5 25 L 64 25.5 L 60.5 27 L 60.5 26 L 62.5 25 Z " /><path fill="rgb(2,3,1)" stroke="rgb(2,3,1)" stroke-width="1" opacity="0.30196078431372547" d="M 51.5 30 L 50.5 32 L 51.5 30 Z " /><path fill="rgb(2,3,1)" stroke="rgb(2,3,1)" stroke-width="1" opacity="0.30196078431372547" d="M 110.5 30 L 118 35.5 L 114.5 33 Q 110.5 32.5 110.5 30 Z " /><path fill="rgb(2,3,1)" stroke="rgb(2,3,1)" stroke-width="1" opacity="0.30196078431372547" d="M 48.5 32 L 47.5 34 L 41.5 38 L 41.5 37 L 48.5 32 Z " /><path fill="rgb(2,3,1)" stroke="rgb(2,3,1)" stroke-width="1" opacity="0.30196078431372547" d="M 119.5 36 L 127.5 45 L 119.5 36 Z " /><path fill="rgb(2,3,1)" stroke="rgb(2,3,1)" stroke-width="1" opacity="0.30196078431372547" d="M 36.5 43 L 34.5 46 L 36.5 43 Z " /><path fill="rgb(2,3,1)" stroke="rgb(2,3,1)" stroke-width="1" opacity="0.30196078431372547" d="M 128.5 46 L 129.5 48 L 128.5 46 Z " /><path fill="rgb(2,3,1)" stroke="rgb(2,3,1)" stroke-width="1" opacity="0.30196078431372547" d="M 32.5 48 L 31.5 50 L 32.5 48 Z " /><path fill="rgb(2,3,1)" stroke="rgb(2,3,1)" stroke-width="1" opacity="0.30196078431372547" d="M 132.5 52 L 136 58.5 L 135 58.5 L 132.5 52 Z " /><path fill="rgb(2,3,1)" stroke="rgb(2,3,1)" stroke-width="1" opacity="0.30196078431372547" d="M 29.5 53 L 29 54.5 L 27.5 58 L 27 56.5 L 29.5 53 Z " /><path fill="rgb(2,3,1)" stroke="rgb(2,3,1)" stroke-width="1" opacity="0.30196078431372547" d="M 138.5 66 L 139 68.5 L 138 68.5 L 138.5 66 Z " /><path fill="rgb(2,3,1)" stroke="rgb(2,3,1)" stroke-width="1" opacity="0.30196078431372547" d="M 23.5 67 L 24 70.5 L 23 70.5 L 23.5 67 Z " /><path fill="rgb(2,3,1)" stroke="rgb(2,3,1)" stroke-width="1" opacity="0.30196078431372547" d="M 139.5 71 L 140 79.5 L 139 79.5 L 139.5 71 Z " /><path fill="rgb(2,3,1)" stroke="rgb(2,3,1)" stroke-width="1" opacity="0.30196078431372547" d="M 22.5 72 L 23 76.5 L 22 76.5 L 22.5 72 Z " /><path fill="rgb(2,3,1)" stroke="rgb(2,3,1)" stroke-width="1" opacity="0.30196078431372547" d="M 23.5 78 L 24 80.5 L 23 80.5 L 23.5 78 Z " /><path fill="rgb(2,3,1)" stroke="rgb(2,3,1)" stroke-width="1" opacity="0.30196078431372547" d="M 138.5 81 L 139 84.5 L 138 84.5 L 138.5 81 Z " /><path fill="rgb(2,3,1)" stroke="rgb(2,3,1)" stroke-width="1" opacity="0.30196078431372547" d="M 22.5 82 L 23 91.5 L 22 91.5 L 22.5 82 Z " /><path fill="rgb(2,3,1)" stroke="rgb(2,3,1)" stroke-width="1" opacity="0.30196078431372547" d="M 139.5 87 L 140 90.5 L 139 90.5 L 139.5 87 Z " /><path fill="rgb(2,3,1)" stroke="rgb(2,3,1)" stroke-width="1" opacity="0.30196078431372547" d="M 138.5 92 L 139 95.5 L 138 95.5 L 138.5 92 Z " /><path fill="rgb(2,3,1)" stroke="rgb(2,3,1)" stroke-width="1" opacity="0.30196078431372547" d="M 23.5 93 L 24 95.5 L 23 95.5 L 23.5 93 Z " /><path fill="rgb(2,3,1)" stroke="rgb(2,3,1)" stroke-width="1" opacity="0.30196078431372547" d="M 28.5 108 L 30 110.5 L 28 109.5 L 28.5 108 Z " /><path fill="rgb(2,3,1)" stroke="rgb(2,3,1)" stroke-width="1" opacity="0.30196078431372547" d="M 30.5 112 L 31.5 114 L 30.5 112 Z " /><path fill="rgb(2,3,1)" stroke="rgb(2,3,1)" stroke-width="1" opacity="0.30196078431372547" d="M 131.5 112 L 130.5 114 L 131.5 112 Z " /><path fill="rgb(2,3,1)" stroke="rgb(2,3,1)" stroke-width="1" opacity="0.30196078431372547" d="M 32.5 115 L 33.5 117 L 32.5 115 Z " /><path fill="rgb(2,3,1)" stroke="rgb(2,3,1)" stroke-width="1" opacity="0.30196078431372547" d="M 129.5 115 L 127.5 118 L 129.5 115 Z " /><path fill="rgb(2,3,1)" stroke="rgb(2,3,1)" stroke-width="1" opacity="0.30196078431372547" d="M 35.5 119 L 43.5 128 L 35.5 119 Z " /><path fill="rgb(2,3,1)" stroke="rgb(2,3,1)" stroke-width="1" opacity="0.30196078431372547" d="M 126.5 119 L 117.5 129 L 114.5 131 L 116.5 128 L 126.5 119 Z " /><path fill="rgb(2,3,1)" stroke="rgb(2,3,1)" stroke-width="1" opacity="0.30196078431372547" d="M 46.5 129 L 47.5 131 L 46.5 129 Z " /><path fill="rgb(2,3,1)" stroke="rgb(2,3,1)" stroke-width="1" opacity="0.30196078431372547" d="M 49.5 131 L 53 133.5 L 51.5 133 L 49.5 131 Z " /><path fill="rgb(2,3,1)" stroke="rgb(2,3,1)" stroke-width="1" opacity="0.30196078431372547" d="M 110.5 132 L 109.5 134 L 110.5 132 Z " /><path fill="rgb(2,3,1)" stroke="rgb(2,3,1)" stroke-width="1" opacity="0.30196078431372547" d="M 104.5 135 L 106 135.5 L 102.5 137 L 102.5 136 L 104.5 135 Z " /><path fill="rgb(2,3,1)" stroke="rgb(2,3,1)" stroke-width="1" opacity="0.30196078431372547" d="M 99.5 137 L 101 137.5 L 96.5 139 L 96.5 138 L 99.5 137 Z " /><path fill="rgb(2,3,1)" stroke="rgb(2,3,1)" stroke-width="1" opacity="0.30196078431372547" d="M 67.5 139 L 70 139.5 L 67.5 140 L 67.5 139 Z " /><path fill="rgb(2,3,1)" stroke="rgb(2,3,1)" stroke-width="1" opacity="0.30196078431372547" d="M 91.5 139 L 94 139.5 L 91.5 140 L 91.5 139 Z " /><path fill="rgb(2,3,1)" stroke="rgb(2,3,1)" stroke-width="1" opacity="0.30196078431372547" d="M 73.5 140 L 89 140.5 L 87.5 142 L 76.5 142 L 73.5 141 L 73.5 140 Z " /><path fill="rgb(233,86,61)" stroke="rgb(233,86,61)" stroke-width="1" opacity="0.996078431372549" d="M 113 39 L 123 46.5 L 126 58.5 L 126 77.5 L 123 88 L 119.5 90 L 117.5 89 L 110.5 92 L 99.5 92 L 98.5 93 Q 97 90.5 95.5 94 L 84.5 93 L 83 91.5 Q 82.3 89.3 84.5 90 L 100 79.5 Q 99.3 77.3 101.5 78 Q 108.4 71.4 112 61.5 Q 115.4 53.9 114 41.5 L 113 39 Z " /><path fill="rgb(233,86,61)" stroke="rgb(233,86,61)" stroke-width="1" opacity="0.996078431372549" d="M 28.5 72 L 34.5 79 L 37.5 81 L 41 85.5 L 39.5 85 Q 32 83.6 28 78.5 L 27 73.5 L 28.5 72 Z " /><path fill="rgb(237,110,88)" stroke="rgb(237,110,88)" stroke-width="1" opacity="0.996078431372549" d="M 72.5 27 Q 106.2 25.3 120 43.5 L 114.5 39 L 107.5 37 L 106 40 Q 103 41 104 38 L 107 36.5 Q 107.8 34.3 105.5 35 L 104 35.5 L 104.5 34 L 99 33 L 98.5 31 L 96.5 32 L 94 30.5 L 94.5 29 Q 81.2 27.2 72.5 30 L 69 29 L 67.5 32 L 56 33.5 L 56 35.5 Q 57.1 38.8 54.5 38 L 52 37 Q 53.7 41.1 49.5 40 L 49.5 41 L 56.5 39 Q 58.7 42.5 64 42 L 65 48 Q 68.7 46.8 67 52 L 65 52 L 65 56 Q 62.3 54.9 63 57.5 L 61 61 L 56.5 63 L 40 64 Q 38.6 60 45.5 62 L 45 60.5 L 44.5 59 L 40 60 L 40.5 56 L 43 57.5 L 42 54.5 L 43 53.5 L 43 47 L 40 48.5 Q 41.5 54.5 38.5 56 L 36.5 53 L 34.5 57 Q 31.5 56.1 33 60.5 L 32 64 L 30 64.5 L 32 67.5 L 31 69.5 L 34 74 Q 39.3 75.3 38.5 72 L 41.5 72 L 43 75 L 38 74 L 37.5 78 L 35 77 Q 36.1 74.3 33.5 75 L 30 73 L 29.5 71 L 27 72.5 Q 30.4 52.9 42.5 42 L 45.5 40 Q 55.3 29.8 72.5 27 Z M 46 41 L 45 43 L 41 46 L 44 46 L 47 43 L 46 41 Z M 52 42 L 50 43 L 44 51 L 45 58 L 51 62 L 58 61 Q 62 58 64 52 L 63 47 Q 61 40 52 42 Z " /><path fill="rgb(237,110,88)" stroke="rgb(237,110,88)" stroke-width="1" opacity="0.996078431372549" d="M 81.5 30 Q 85.3 29 84 32 L 78 31.5 L 81.5 30 Z " /><path fill="rgb(237,110,88)" stroke="rgb(237,110,88)" stroke-width="1" opacity="0.996078431372549" d="M 88 30 Q 92.1 28.7 91 32 Q 86.9 33.3 88 30 Z " /><path fill="rgb(237,110,88)" stroke="rgb(237,110,88)" stroke-width="1" opacity="0.996078431372549" d="M 109.5 60 Q 112.8 61.8 109 63.5 Q 109.8 65.8 107.5 65 L 106 65.5 Q 106.7 62.9 104 64 L 104 62 L 108.5 63 L 109.5 60 Z " /><path fill="rgb(237,110,88)" stroke="rgb(237,110,88)" stroke-width="1" opacity="0.996078431372549" d="M 62.5 61 Q 65.5 60.2 64 64 Q 60.3 65.5 61 62.5 L 62.5 61 Z " /><path fill="rgb(237,110,88)" stroke="rgb(237,110,88)" stroke-width="1" opacity="0.996078431372549" d="M 74 72 Q 77 71 76 74 Q 73 75 74 72 Z " /><path fill="rgb(237,110,88)" stroke="rgb(237,110,88)" stroke-width="1" opacity="0.996078431372549" d="M 98 72 Q 101.7 70.5 101 73.5 Q 100.5 76.5 96.5 76 L 98 73.5 L 98 72 Z " /><path fill="rgb(237,110,88)" stroke="rgb(237,110,88)" stroke-width="1" opacity="0.996078431372549" d="M 52.5 73 L 66.5 73 L 67 74.5 L 69.5 75 L 75 77.5 L 74.5 79 Q 77.8 80.1 77 77.5 L 76 75 L 81 77.5 L 77 80.5 L 79 81.5 Q 76.8 82.8 79.5 84 L 81.5 84 L 84 81.5 Q 83.3 78.9 86 80 L 87 86.5 L 86 86.5 Q 87 82.8 84 84 Q 84.8 87.4 82 88.5 L 83 90.5 L 82 90.5 Q 79.6 81.9 72.5 78 Q 66.9 73.6 56.5 74 Q 48.8 76.3 44 81.5 L 40.5 87 L 38 85.5 L 39.5 85 L 41 85.5 L 41.5 80 L 43 80.5 L 45 77.5 L 52.5 73 Z " /><path fill="rgb(237,110,88)" stroke="rgb(237,110,88)" stroke-width="1" opacity="0.996078431372549" d="M 100 76 L 102 76.5 L 100 77.5 L 100 76 Z " /><path fill="rgb(237,110,88)" stroke="rgb(237,110,88)" stroke-width="1" opacity="0.996078431372549" d="M 30.5 80 L 31.5 82 L 30.5 80 Z " /><path fill="rgb(237,110,88)" stroke="rgb(237,110,88)" stroke-width="1" opacity="0.996078431372549" d="M 88 80 Q 91 79 90 82 Q 87 83 88 80 Z " /><path fill="rgb(237,110,88)" stroke="rgb(237,110,88)" stroke-width="1" opacity="0.996078431372549" d="M 94.5 80 L 95.5 82 L 94 82.5 L 94.5 84 Q 91.8 82.8 94 81.5 L 94.5 80 Z " /><path fill="rgb(237,110,88)" stroke="rgb(237,110,88)" stroke-width="1" opacity="0.996078431372549" d="M 34.5 83 L 37 84.5 L 35.5 84 L 34.5 83 Z " /><path fill="rgb(237,110,88)" stroke="rgb(237,110,88)" stroke-width="1" opacity="0.996078431372549" d="M 83.5 92 L 92 93.5 L 83 94 L 83.5 92 Z " /><path fill="rgb(237,110,88)" stroke="rgb(237,110,88)" stroke-width="1" opacity="0.996078431372549" d="M 99.5 92 L 104 92.5 L 99.5 93 L 99.5 92 Z " /><path fill="rgb(237,110,88)" stroke="rgb(237,110,88)" stroke-width="1" opacity="0.996078431372549" d="M 55.5 109 L 58 109.5 L 55.5 110 L 55.5 109 Z " /><path fill="rgb(0,0,0)" stroke="rgb(0,0,0)" stroke-width="1" opacity="0" d="M 0 0 L 160 0 L 160 160 L 0 160 L 0 0 Z M 74 22 L 58 27 L 41 37 L 28 55 L 22 73 L 23 78 L 22 83 L 22 92 L 25 103 L 35 120 L 51 133 L 59 137 L 77 142 L 88 142 L 90 140 L 99 139 L 118 129 Q 135 116 140 91 L 139 87 Q 138 81 140 80 L 140 72 L 136 58 L 128 45 Q 119 33 105 27 L 89 22 L 74 22 Z M 131 36 L 132 38 Q 133 35 131 36 Z M 146 96 L 144 103 L 144 104 L 148 104 L 148 97 L 146 96 Z M 144 105 L 141 111 Q 140 113 144 112 L 144 105 Z M 140 114 L 136 120 L 140 120 L 140 114 Z M 136 120 L 133 124 L 136 124 L 136 120 Z M 132 125 L 129 128 L 132 128 L 132 125 Z M 128 129 L 125 132 L 128 132 L 128 129 Z M 124 133 L 121 136 L 124 136 L 124 133 Z M 120 136 Q 115 141 107 143 L 107 144 L 116 144 L 116 140 L 120 140 L 120 136 Z M 44 138 L 44 140 L 48 140 L 44 138 Z M 52 142 L 52 144 L 56 144 L 52 142 Z M 104 144 L 96 148 L 104 148 L 104 144 Z M 61 145 L 60 148 L 70 148 L 61 145 Z M 86 148 L 80 149 L 80 152 L 88 152 Q 90 147 86 148 Z " /><path fill="rgb(240,109,87)" stroke="rgb(240,109,87)" stroke-width="1" opacity="1" d="M 69 29 L 75.5 30 L 76.5 29 L 94.5 29 L 94.5 31 L 97.5 32 L 99 31.5 Q 98.1 34.5 102.5 33 L 107 35 Q 105.8 38 109.5 37 L 113 38 Q 114.9 43.6 114 53.5 L 110 66 L 108 66.5 L 108 68.5 L 101.5 78 L 101.5 76 Q 98.5 75.1 100 79.5 L 87.5 89 L 83.5 90 Q 80.3 88.3 84 86.5 Q 83 82.8 86 84 L 86 80 Q 83.3 78.9 84 81.5 L 81.5 84 L 78 82.5 L 78.5 81 L 77 80.5 L 81 77.5 L 76 75 L 77 79 L 74 78.5 L 74.5 77 L 72.5 76 L 71 76.5 L 71.5 75 L 68.5 74 L 67 74.5 L 66.5 73 L 52.5 73 L 52.5 75 L 50.5 75 L 48 75.5 L 48.5 77 L 46.5 76 L 45 79 Q 42.3 77.9 43 80.5 L 41 80.5 L 40.5 84 L 36 81 Q 37.1 78.3 34.5 79 L 29 71.5 L 30 71.5 Q 29.3 73.8 31.5 73 L 35 75 Q 33.9 77.7 36.5 77 L 38 77.5 L 38 74 L 34 74 L 34 72.5 L 31 68.5 L 32 66.5 L 30.5 64 Q 33.1 64.8 32 61.5 L 33 57 L 36 55.5 L 37.5 52 L 38 54.5 L 38.5 56 L 40 54.5 Q 38.5 48.5 41.5 47 Q 44.5 46.5 43 53.5 L 43 55.5 L 42.5 58 L 40 56.5 Q 38.3 61.8 43.5 60 L 45 59.5 L 47.5 63 Q 57.1 64.3 61 61 L 63 56 L 65 56 L 65 52.5 Q 68.3 53.3 67 48 Q 64 49.3 65 45.5 L 64 42 L 54.5 39 Q 53.8 41.8 49.5 41 L 49.5 40 L 52 40 Q 50.5 36.3 53.5 37 L 56 38 L 57 34.5 L 56.5 33 L 67.5 32 L 69 30.5 L 69 29 Z M 82 30 L 78 32 L 84 32 Q 85 29 82 30 Z M 88 30 Q 87 33 91 32 Q 92 29 88 30 Z M 104 38 Q 103 41 106 40 Q 107 37 104 38 Z M 63 61 L 61 63 Q 60 66 64 64 Q 65 60 63 61 Z M 40 62 L 40 64 L 47 64 Q 45 60 40 62 Z M 104 62 L 104 64 Q 107 63 106 66 L 108 65 Q 110 66 109 63 L 104 62 Z M 38 72 L 38 74 L 42 75 Q 44 76 43 74 Q 42 71 38 72 Z M 74 72 Q 73 75 76 74 Q 77 71 74 72 Z M 98 72 L 98 74 L 97 76 Q 100 77 101 74 Q 102 71 98 72 Z M 88 80 Q 87 83 90 82 Q 91 79 88 80 Z M 95 80 Q 93 83 96 82 L 95 80 Z M 87 84 L 86 87 L 87 87 L 87 84 Z " /><path fill="rgb(240,109,87)" stroke="rgb(240,109,87)" stroke-width="1" opacity="1" d="M 45.5 41 L 48 41.5 L 43.5 46 L 41.5 46 L 41.5 45 L 45 42.5 L 45.5 41 Z " /><path fill="rgb(175,68,56)" stroke="rgb(175,68,56)" stroke-width="1" opacity="0.996078431372549" d="M 76.5 26 L 86 26.5 L 76.5 27 L 76.5 26 Z " /><path fill="rgb(175,68,56)" stroke="rgb(175,68,56)" stroke-width="1" opacity="0.996078431372549" d="M 69.5 27 L 72 27.5 L 69.5 28 L 69.5 27 Z " /><path fill="rgb(175,68,56)" stroke="rgb(175,68,56)" stroke-width="1" opacity="0.996078431372549" d="M 89.5 27 L 92 27.5 L 89.5 28 L 89.5 27 Z " /><path fill="rgb(175,68,56)" stroke="rgb(175,68,56)" stroke-width="1" opacity="0.996078431372549" d="M 112.5 36 L 113.5 38 L 112.5 36 Z " /><path fill="rgb(175,68,56)" stroke="rgb(175,68,56)" stroke-width="1" opacity="0.996078431372549" d="M 46.5 38 L 45.5 40 L 46.5 38 Z " /><path fill="rgb(175,68,56)" stroke="rgb(175,68,56)" stroke-width="1" opacity="0.996078431372549" d="M 116.5 39 Q 124.8 45.8 130 55.5 L 135 68.5 L 136 79.5 L 134 83 L 122.5 89 L 123 87.5 Q 128.2 76.7 126 58.5 L 123 46.5 L 116.5 39 Z " /><path fill="rgb(175,68,56)" stroke="rgb(175,68,56)" stroke-width="1" opacity="0.996078431372549" d="M 39.5 45 L 38.5 47 L 39.5 45 Z " /><path fill="rgb(175,68,56)" stroke="rgb(175,68,56)" stroke-width="1" opacity="0.996078431372549" d="M 26.5 71 L 27 76.5 L 26 76.5 L 26.5 71 Z " /><path fill="rgb(175,68,56)" stroke="rgb(175,68,56)" stroke-width="1" opacity="0.996078431372549" d="M 56.5 74 L 63 74.5 L 56.5 75 L 56.5 74 Z " /><path fill="rgb(175,68,56)" stroke="rgb(175,68,56)" stroke-width="1" opacity="0.996078431372549" d="M 72.5 78 L 73.5 80 L 72.5 78 Z " /><path fill="rgb(175,68,56)" stroke="rgb(175,68,56)" stroke-width="1" opacity="0.996078431372549" d="M 46.5 79 L 44.5 82 L 46.5 79 Z " /><path fill="rgb(175,68,56)" stroke="rgb(175,68,56)" stroke-width="1" opacity="0.996078431372549" d="M 29.5 80 L 30.5 82 L 29.5 80 Z " /><path fill="rgb(175,68,56)" stroke="rgb(175,68,56)" stroke-width="1" opacity="0.996078431372549" d="M 32.5 82 L 33.5 84 L 32.5 82 Z " /><path fill="rgb(175,68,56)" stroke="rgb(175,68,56)" stroke-width="1" opacity="0.996078431372549" d="M 43.5 83 L 42.5 85 L 43.5 83 Z " /><path fill="rgb(175,68,56)" stroke="rgb(175,68,56)" stroke-width="1" opacity="0.996078431372549" d="M 78.5 84 L 79.5 86 L 78.5 84 Z " /><path fill="rgb(175,68,56)" stroke="rgb(175,68,56)" stroke-width="1" opacity="0.996078431372549" d="M 115.5 90 L 118 90.5 L 115.5 91 L 115.5 90 Z " /><path fill="rgb(175,68,56)" stroke="rgb(175,68,56)" stroke-width="1" opacity="0.996078431372549" d="M 111.5 91 L 114 91.5 L 111.5 92 L 111.5 91 Z " /><path fill="rgb(175,68,56)" stroke="rgb(175,68,56)" stroke-width="1" opacity="0.996078431372549" d="M 104.5 92 L 109 92.5 L 104.5 93 L 104.5 92 Z " /><path fill="rgb(175,68,56)" stroke="rgb(175,68,56)" stroke-width="1" opacity="0.996078431372549" d="M 96.5 93 L 102 93.5 L 96.5 94 L 96.5 93 Z " /><path fill="rgb(255,254,227)" stroke="rgb(255,254,227)" stroke-width="1" opacity="0.00392156862745098" d="M 130.5 36 Q 132.8 35.3 132 37.5 L 130.5 36 Z " /><path fill="rgb(255,254,227)" stroke="rgb(255,254,227)" stroke-width="1" opacity="0.00392156862745098" d="M 146 96 L 148 96.5 L 148 104 L 144 104 L 144 102.5 L 146 96 Z " /><path fill="rgb(255,254,227)" stroke="rgb(255,254,227)" stroke-width="1" opacity="0.00392156862745098" d="M 143.5 105 L 144 112 Q 140.2 113.5 141 110.5 L 143.5 105 Z " /><path fill="rgb(255,254,227)" stroke="rgb(255,254,227)" stroke-width="1" opacity="0.00392156862745098" d="M 139.5 114 L 140 120 L 136 120 Q 138.1 125.2 133.5 124 L 135 121.5 L 139.5 114 Z " /><path fill="rgb(255,254,227)" stroke="rgb(255,254,227)" stroke-width="1" opacity="0.00392156862745098" d="M 131.5 125 L 132 128 L 129 127.5 L 131.5 125 Z " /><path fill="rgb(255,254,227)" stroke="rgb(255,254,227)" stroke-width="1" opacity="0.00392156862745098" d="M 127.5 129 L 128 132 L 125 131.5 L 127.5 129 Z " /><path fill="rgb(255,254,227)" stroke="rgb(255,254,227)" stroke-width="1" opacity="0.00392156862745098" d="M 123.5 133 L 124 136 L 121 135.5 L 123.5 133 Z " /><path fill="rgb(255,254,227)" stroke="rgb(255,254,227)" stroke-width="1" opacity="0.00392156862745098" d="M 119.5 136 L 120 140 L 116 140 L 115.5 144 L 106.5 144 L 106.5 143 Q 114.7 141.2 119.5 136 Z " /><path fill="rgb(255,254,227)" stroke="rgb(255,254,227)" stroke-width="1" opacity="0.00392156862745098" d="M 44 138 L 48 139.5 L 44 140 L 44 138 Z " /><path fill="rgb(255,254,227)" stroke="rgb(255,254,227)" stroke-width="1" opacity="0.00392156862745098" d="M 52 142 L 56 143.5 L 52 144 L 52 142 Z " /><path fill="rgb(255,254,227)" stroke="rgb(255,254,227)" stroke-width="1" opacity="0.00392156862745098" d="M 103.5 144 L 104 148 L 96 147.5 L 103.5 144 Z " /><path fill="rgb(255,254,227)" stroke="rgb(255,254,227)" stroke-width="1" opacity="0.00392156862745098" d="M 60.5 145 L 70 147.5 L 60 148 L 60.5 145 Z " /><path fill="rgb(255,254,227)" stroke="rgb(255,254,227)" stroke-width="1" opacity="0.00392156862745098" d="M 85.5 148 Q 90.1 146.8 88 152 L 80 152 L 80 149 L 85.5 148 Z " /><path fill="rgb(244,237,237)" stroke="rgb(244,237,237)" stroke-width="1" opacity="0.996078431372549" d="M 53.5 42 Q 60.4 41.1 62 45.5 L 63 53.5 L 60 59 Q 57.1 61.9 49.5 61 L 46 58.5 L 45 49.5 L 50.5 43 L 53.5 42 Z " /><path fill="rgb(244,237,237)" stroke="rgb(244,237,237)" stroke-width="1" opacity="0.996078431372549" d="M 57.5 84 L 64.5 84 L 72 89.5 L 74 95.5 Q 71.5 97 73 102.5 L 68.5 109 L 62.5 111 L 62.5 110 L 69 107 Q 72 103.8 71 95.5 L 66.5 89 Q 63.2 85.8 55.5 87 L 49.5 92 L 50 90.5 L 53.5 86 L 57.5 84 Z " /><path fill="rgb(244,237,237)" stroke="rgb(244,237,237)" stroke-width="1" opacity="0.996078431372549" d="M 58.5 89 L 64.5 91 L 67 93.5 L 68 98 Q 65.3 96.9 66 99.5 L 66 101.5 Q 66.8 106.3 63.5 107 L 58.5 108 L 52 103.5 L 51 94.5 L 53.5 91 L 58.5 89 Z " /><path fill="rgb(244,237,237)" stroke="rgb(244,237,237)" stroke-width="1" opacity="0.996078431372549" d="M 27.5 92 L 31.5 96 L 41 100.5 Q 42.3 109.7 48.5 114 L 57.5 119 Q 62.3 117.8 63.5 120 Q 64.8 117.8 69.5 119 L 75.5 116 L 80 111.5 L 82.5 107 L 95.5 107 L 96.5 106 L 111.5 105 L 111.5 106 L 98.5 115 L 86.5 120 Q 78.2 122.7 65.5 121 L 63.5 121 L 56.5 120 L 44.5 114 L 32.5 103 L 30 103 L 27.5 92 Z " /><path fill="rgb(57,52,52)" stroke="rgb(57,52,52)" stroke-width="1" opacity="0.996078431372549" d="M 67.5 26 L 68.5 28 Q 65.7 28.7 67.5 26 Z " /><path fill="rgb(57,52,52)" stroke="rgb(57,52,52)" stroke-width="1" opacity="0.996078431372549" d="M 73.5 26 L 76 26.5 L 73.5 27 L 73.5 26 Z " /><path fill="rgb(57,52,52)" stroke="rgb(57,52,52)" stroke-width="1" opacity="0.996078431372549" d="M 86.5 26 L 90 26.5 L 86.5 27 L 86.5 26 Z " /><path fill="rgb(57,52,52)" stroke="rgb(57,52,52)" stroke-width="1" opacity="0.996078431372549" d="M 63.5 27 L 64.5 29 L 63.5 27 Z " /><path fill="rgb(57,52,52)" stroke="rgb(57,52,52)" stroke-width="1" opacity="0.996078431372549" d="M 105.5 30 L 108 31.5 L 106 32.5 L 106.5 31 L 104.5 32 L 105.5 30 Z " /><path fill="rgb(57,52,52)" stroke="rgb(57,52,52)" stroke-width="1" opacity="0.996078431372549" d="M 54.5 31 L 55.5 33 L 54.5 31 Z " /><path fill="rgb(57,52,52)" stroke="rgb(57,52,52)" stroke-width="1" opacity="0.996078431372549" d="M 52.5 32 L 53.5 34 L 52.5 32 Z " /><path fill="rgb(57,52,52)" stroke="rgb(57,52,52)" stroke-width="1" opacity="0.996078431372549" d="M 109.5 32 L 108.5 34 L 109.5 32 Z " /><path fill="rgb(57,52,52)" stroke="rgb(57,52,52)" stroke-width="1" opacity="0.996078431372549" d="M 111.5 33 L 119 38.5 L 118.5 40 L 114 37.5 L 114.5 36 L 112.5 35 L 111 35.5 L 111.5 33 Z " /><path fill="rgb(57,52,52)" stroke="rgb(57,52,52)" stroke-width="1" opacity="0.996078431372549" d="M 46.5 36 L 47.5 38 L 46.5 36 Z " /><path fill="rgb(57,52,52)" stroke="rgb(57,52,52)" stroke-width="1" opacity="0.996078431372549" d="M 120.5 40 Q 129.7 47.3 134 59.5 L 132.5 62 L 130 56.5 L 131 54.5 L 128 53.5 L 126 50.5 L 128 50.5 L 126.5 48 Q 125.3 50.3 124 47.5 L 124 45.5 L 120.5 40 Z " /><path fill="rgb(57,52,52)" stroke="rgb(57,52,52)" stroke-width="1" opacity="0.996078431372549" d="M 37.5 47 L 36.5 49 L 37.5 47 Z " /><path fill="rgb(57,52,52)" stroke="rgb(57,52,52)" stroke-width="1" opacity="0.996078431372549" d="M 31.5 53 L 32.5 55 L 31.5 53 Z " /><path fill="rgb(57,52,52)" stroke="rgb(57,52,52)" stroke-width="1" opacity="0.996078431372549" d="M 30.5 55 L 31.5 57 L 30.5 55 Z " /><path fill="rgb(57,52,52)" stroke="rgb(57,52,52)" stroke-width="1" opacity="0.996078431372549" d="M 29.5 57 L 30.5 59 L 29.5 57 Z " /><path fill="rgb(57,52,52)" stroke="rgb(57,52,52)" stroke-width="1" opacity="0.996078431372549" d="M 28.5 59 L 29.5 61 L 28.5 59 Z " /><path fill="rgb(57,52,52)" stroke="rgb(57,52,52)" stroke-width="1" opacity="0.996078431372549" d="M 134.5 61 L 135 62.5 L 133.5 65 L 133 63.5 L 134.5 61 Z " /><path fill="rgb(57,52,52)" stroke="rgb(57,52,52)" stroke-width="1" opacity="0.996078431372549" d="M 135.5 64 L 136 65.5 L 134.5 68 L 134 66.5 L 135.5 64 Z " /><path fill="rgb(57,52,52)" stroke="rgb(57,52,52)" stroke-width="1" opacity="0.996078431372549" d="M 26.5 65 L 27.5 67 L 26.5 65 Z " /><path fill="rgb(57,52,52)" stroke="rgb(57,52,52)" stroke-width="1" opacity="0.996078431372549" d="M 136.5 67 L 137 70.5 L 136 73 L 138 73.5 L 138 75.5 L 137 87.5 L 136 88.5 L 137 95 L 132 94 L 130.5 98 L 130.5 96 L 125 98.5 L 127 99.5 L 125.5 100 L 124 99.5 L 123.5 101 Q 122 98.5 116.5 100 L 114.5 102 L 103.5 103 L 102.5 104 L 80 104 L 80 106.5 L 73.5 114 L 70.5 116 L 61.5 117 Q 60.3 114.8 55.5 116 L 52 114 Q 53.3 111 49.5 112 L 48 108 L 45 106.5 L 41.5 97 L 32 94 Q 33.1 91.3 30.5 92 L 28.5 91 L 29.5 94 Q 25.8 92 27.5 90 L 25.5 91 Q 23.1 88.7 24 84 L 26 83.5 L 25 78.5 L 27 77.5 L 26 79.5 L 29.5 84 L 32 82.5 Q 29.3 84.2 33.5 86 L 39.5 88 L 41.5 87 L 41.5 88 L 40 88.5 L 43.5 89 L 44 86.5 L 44 84 Q 46.7 85.1 46 82.5 Q 50.3 80.3 48.5 78 L 50.5 79 L 53.5 77 L 65.5 77 L 74.5 82 L 74.5 80 L 77.5 84 L 76 83.5 L 80.5 91 L 82 90.5 Q 78.5 92 81 93.5 L 81.5 96 L 96.5 96 L 97.5 95 L 107.5 95 L 116 92.5 L 114 91.5 L 115.5 91 L 119.5 92 L 123.5 90 Q 125 92.5 126.5 89 L 128 88.5 L 126 87.5 L 132.5 83 L 134 86 Q 136.7 87.1 136 84.5 L 136 82.5 L 135.5 81 L 134 81.5 Q 137.3 80.3 136 74.5 L 135 70.5 L 136.5 67 Z M 61 81 L 51 84 L 46 92 L 46 95 L 45 100 L 47 102 L 49 97 L 49 102 L 51 102 L 50 104 L 52 104 L 51 106 L 54 107 Q 55 105 56 108 L 55 110 L 51 107 L 50 109 L 53 110 L 55 112 L 57 111 L 56 113 L 61 114 Q 62 112 68 113 L 72 110 Q 71 107 74 108 L 77 104 L 77 97 L 75 88 L 71 85 L 69 86 L 69 85 Q 66 81 61 81 Z M 132 85 L 130 87 L 132 87 L 132 85 Z M 48 102 L 46 104 L 49 106 L 48 102 Z " /><path fill="rgb(57,52,52)" stroke="rgb(57,52,52)" stroke-width="1" opacity="0.996078431372549" d="M 57.5 87 L 61 87.5 L 57.5 88 L 57.5 87 Z " /><path fill="rgb(57,52,52)" stroke="rgb(57,52,52)" stroke-width="1" opacity="0.996078431372549" d="M 54.5 88 L 55.5 90 L 54.5 88 Z " /><path fill="rgb(57,52,52)" stroke="rgb(57,52,52)" stroke-width="1" opacity="0.996078431372549" d="M 63.5 88 L 62.5 90 L 63.5 88 Z " /><path fill="rgb(57,52,52)" stroke="rgb(57,52,52)" stroke-width="1" opacity="0.996078431372549" d="M 52.5 89 L 52.5 92 L 50 91.5 L 52.5 89 Z " /><path fill="rgb(57,52,52)" stroke="rgb(57,52,52)" stroke-width="1" opacity="0.996078431372549" d="M 65.5 89 L 67 90.5 L 66.5 93 Q 62 91 65.5 89 Z " /><path fill="rgb(57,52,52)" stroke="rgb(57,52,52)" stroke-width="1" opacity="0.996078431372549" d="M 109.5 92 L 112 92.5 L 109.5 93 L 109.5 92 Z " /><path fill="rgb(57,52,52)" stroke="rgb(57,52,52)" stroke-width="1" opacity="0.996078431372549" d="M 49.5 93 L 50.5 95 L 49.5 93 Z " /><path fill="rgb(57,52,52)" stroke="rgb(57,52,52)" stroke-width="1" opacity="0.996078431372549" d="M 82.5 93 L 83.5 94 L 96 94.5 L 82 95 L 82.5 93 Z " /><path fill="rgb(57,52,52)" stroke="rgb(57,52,52)" stroke-width="1" opacity="0.996078431372549" d="M 69.5 94 L 68.5 96 L 69.5 94 Z " /><path fill="rgb(57,52,52)" stroke="rgb(57,52,52)" stroke-width="1" opacity="0.996078431372549" d="M 70.5 97 L 71 100.5 L 70 100.5 L 70.5 97 Z " /><path fill="rgb(57,52,52)" stroke="rgb(57,52,52)" stroke-width="1" opacity="0.996078431372549" d="M 28.5 100 L 27.5 102 L 28.5 100 Z " /><path fill="rgb(57,52,52)" stroke="rgb(57,52,52)" stroke-width="1" opacity="0.996078431372549" d="M 68.5 101 L 70 103.5 L 68 102.5 L 68.5 101 Z " /><path fill="rgb(57,52,52)" stroke="rgb(57,52,52)" stroke-width="1" opacity="0.996078431372549" d="M 111.5 103 L 114 103.5 L 111.5 104 L 111.5 103 Z " /><path fill="rgb(57,52,52)" stroke="rgb(57,52,52)" stroke-width="1" opacity="0.996078431372549" d="M 105.5 104 L 108 104.5 L 105.5 105 L 105.5 104 Z " /><path fill="rgb(57,52,52)" stroke="rgb(57,52,52)" stroke-width="1" opacity="0.996078431372549" d="M 131.5 104 L 133 106.5 L 132 106.5 L 131.5 104 Z " /><path fill="rgb(57,52,52)" stroke="rgb(57,52,52)" stroke-width="1" opacity="0.996078431372549" d="M 72.5 105 L 71.5 107 L 72.5 105 Z " /><path fill="rgb(57,52,52)" stroke="rgb(57,52,52)" stroke-width="1" opacity="0.996078431372549" d="M 96.5 105 L 101 105.5 L 96.5 106 L 96.5 105 Z " /><path fill="rgb(57,52,52)" stroke="rgb(57,52,52)" stroke-width="1" opacity="0.996078431372549" d="M 31.5 107 L 34 110.5 L 31 110.5 L 30 108.5 L 31.5 107 Z " /><path fill="rgb(57,52,52)" stroke="rgb(57,52,52)" stroke-width="1" opacity="0.996078431372549" d="M 58 108 L 62 109.5 L 59.5 110 Q 56.9 110.7 58 108 Z " /><path fill="rgb(57,52,52)" stroke="rgb(57,52,52)" stroke-width="1" opacity="0.996078431372549" d="M 69.5 108 L 68.5 110 L 69.5 108 Z " /><path fill="rgb(57,52,52)" stroke="rgb(57,52,52)" stroke-width="1" opacity="0.996078431372549" d="M 58.5 111 L 63 111.5 L 58.5 112 L 58.5 111 Z " /><path fill="rgb(57,52,52)" stroke="rgb(57,52,52)" stroke-width="1" opacity="0.996078431372549" d="M 34.5 112 L 36 115.5 L 35.5 117 L 33 113.5 L 34.5 112 Z " /><path fill="rgb(57,52,52)" stroke="rgb(57,52,52)" stroke-width="1" opacity="0.996078431372549" d="M 37.5 116 L 48.5 128 Q 49.7 125.8 51 128.5 L 51.5 130 L 53 129.5 Q 51.7 132.3 50.5 130 L 46 126.5 L 44.5 124 L 43 124.5 L 44 123.5 L 40.5 120 L 39 120.5 L 40 119.5 L 37.5 116 Z " /><path fill="rgb(57,52,52)" stroke="rgb(57,52,52)" stroke-width="1" opacity="0.996078431372549" d="M 124.5 116 Q 127.5 117.5 124.5 119 Q 123.3 116.8 122 119.5 Q 124.8 121.3 120.5 123 Q 119.3 120.7 118 123.5 Q 120.7 125.3 116.5 127 L 116 124.5 L 119.5 121 Q 120.8 123.3 122 120.5 L 121 119.5 L 124.5 116 Z " /><path fill="rgb(57,52,52)" stroke="rgb(57,52,52)" stroke-width="1" opacity="0.996078431372549" d="M 60.5 118 L 63 118.5 L 60.5 119 L 60.5 118 Z " /><path fill="rgb(57,52,52)" stroke="rgb(57,52,52)" stroke-width="1" opacity="0.996078431372549" d="M 64.5 118 L 68 118.5 L 64.5 119 L 64.5 118 Z " /><path fill="rgb(57,52,52)" stroke="rgb(57,52,52)" stroke-width="1" opacity="0.996078431372549" d="M 113.5 126 L 114 128.5 L 112.5 130 Q 109 128 113.5 126 Z " /><path fill="rgb(57,52,52)" stroke="rgb(57,52,52)" stroke-width="1" opacity="0.996078431372549" d="M 56.5 131 L 59 132.5 L 56.5 134 L 54 132.5 L 56.5 131 Z " /><path fill="rgb(57,52,52)" stroke="rgb(57,52,52)" stroke-width="1" opacity="0.996078431372549" d="M 105.5 131 L 106.5 133 L 105.5 131 Z " /><path fill="rgb(57,52,52)" stroke="rgb(57,52,52)" stroke-width="1" opacity="0.996078431372549" d="M 103.5 132 L 104.5 134 L 103.5 132 Z " /><path fill="rgb(57,52,52)" stroke="rgb(57,52,52)" stroke-width="1" opacity="0.996078431372549" d="M 60.5 133 L 59.5 135 L 60.5 133 Z " /><path fill="rgb(57,52,52)" stroke="rgb(57,52,52)" stroke-width="1" opacity="0.996078431372549" d="M 100.5 133 L 103 134.5 L 101.5 134 L 98.5 135 L 98.5 134 L 100.5 133 Z " /><path fill="rgb(57,52,52)" stroke="rgb(57,52,52)" stroke-width="1" opacity="0.996078431372549" d="M 66.5 135 L 73 136.5 L 68.5 138 L 68 136 L 65.5 137 L 66.5 135 Z " /><path fill="rgb(57,52,52)" stroke="rgb(57,52,52)" stroke-width="1" opacity="0.996078431372549" d="M 94.5 135 L 97 136.5 L 95.5 136 L 94.5 135 Z " /><path fill="rgb(57,52,52)" stroke="rgb(57,52,52)" stroke-width="1" opacity="0.996078431372549" d="M 89.5 136 Q 93.9 134.5 93 137.5 L 91.5 137 Q 88.5 137.5 89.5 136 Z " /><path fill="rgb(57,52,52)" stroke="rgb(57,52,52)" stroke-width="1" opacity="0.996078431372549" d="M 77.5 137 L 87.5 137 L 88 138.5 L 86.5 138 L 77.5 138 L 77.5 137 Z " /><path fill="rgb(26,21,21)" stroke="rgb(26,21,21)" stroke-width="1" opacity="0.9803921568627451" d="M 76.5 23 L 93.5 24 L 105.5 28 Q 119.1 34.4 128 45.5 L 138 65.5 L 139 80.5 L 138 84.5 Q 140.5 86 139 91.5 Q 134.3 115.8 117.5 128 Q 108.5 135.5 95.5 139 L 90.5 140 L 70.5 140 Q 46.6 134.4 34 117.5 L 24 97.5 L 23 81.5 L 24 78.5 Q 21.5 77 23 71.5 Q 27.6 50.1 41.5 38 L 56.5 28 L 64.5 25 L 75.5 24 L 76.5 23 Z M 68 26 L 67 28 L 62 29 L 48 37 L 32 55 L 27 67 L 26 78 Q 32 85 42 88 L 45 82 L 56 75 L 64 75 L 73 79 L 81 89 L 82 95 L 96 95 L 105 93 L 112 93 L 128 88 L 132 85 L 132 87 L 127 89 Q 125 92 124 90 L 113 94 L 98 95 L 97 96 L 82 96 L 81 94 L 81 92 L 76 84 L 66 77 Q 50 74 46 83 Q 47 85 44 84 L 44 87 L 44 89 L 34 86 L 31 83 L 30 84 L 26 79 L 25 79 L 26 84 L 24 84 L 25 91 L 27 90 L 31 92 Q 33 91 32 94 L 42 97 L 45 107 L 48 108 L 50 112 Q 53 111 52 114 L 56 116 Q 60 115 62 117 L 71 116 L 74 114 L 80 107 L 80 104 L 103 104 L 104 103 L 115 102 L 117 100 L 123 101 L 105 105 L 81 106 L 79 112 L 70 118 Q 65 117 64 119 L 55 117 L 50 114 Q 43 110 42 101 L 26 91 Q 27 101 32 109 L 31 111 L 33 110 L 46 127 L 48 126 Q 51 128 50 130 L 52 129 L 56 131 L 57 134 L 59 133 L 67 136 Q 69 135 68 138 L 70 137 L 87 138 L 88 139 L 88 137 L 93 138 L 93 136 L 100 135 L 117 125 Q 129 115 135 98 Q 134 94 137 95 L 136 89 L 137 88 L 138 76 L 138 74 L 136 73 L 137 71 L 137 67 L 136 70 Q 134 60 129 54 L 131 54 L 131 53 Q 130 50 129 52 L 126 49 Q 114 31 90 26 L 74 26 L 73 27 L 68 26 Z M 113 34 L 114 36 L 115 36 L 113 34 Z M 117 37 L 119 40 L 119 39 L 117 37 Z M 125 44 L 124 46 L 127 48 L 125 44 Z " /><path fill="rgb(26,21,21)" stroke="rgb(26,21,21)" stroke-width="1" opacity="0.9803921568627451" d="M 60.5 81 L 65.5 82 L 75 88 L 77 96.5 L 77 103.5 L 73.5 108 Q 71.3 107.3 72 109.5 L 67.5 113 Q 62 111.5 60.5 114 L 56 113 L 55.5 111 Q 54 113.5 52.5 110 L 50 108.5 L 46 103.5 L 46 101.5 L 45 99.5 L 46 94.5 L 46 91.5 L 51 84 L 60.5 81 Z M 58 83 L 54 85 L 47 94 Q 46 102 49 106 L 59 112 L 63 112 L 65 112 L 69 110 L 75 102 Q 76 93 73 90 L 65 83 L 58 83 Z " /><path fill="rgb(26,21,21)" stroke="rgb(26,21,21)" stroke-width="1" opacity="0.9803921568627451" d="M 135.5 81 L 136 82.5 L 136 84.5 Q 136.7 87.1 134 86 L 133 83.5 L 135.5 81 Z " /><path fill="rgb(26,21,21)" stroke="rgb(26,21,21)" stroke-width="1" opacity="0.9803921568627451" d="M 55.5 88 L 62.5 88 L 68 91 Q 71 94.3 70 102.5 L 68 107 L 60.5 110 L 61.5 108 L 67 106 L 69 102.5 L 69 95.5 L 64.5 90 L 55.5 89 L 52 91 L 50 94.5 L 50 101.5 L 55 107.5 L 53.5 107 L 51 105.5 Q 47.8 102.2 49 94.5 L 53.5 89 L 55.5 88 Z " /><path fill="rgb(26,21,21)" stroke="rgb(26,21,21)" stroke-width="1" opacity="0.9803921568627451" d="M 134.5 93 L 132.5 96 L 132 94 L 134.5 93 Z " /><path fill="rgb(26,21,21)" stroke="rgb(26,21,21)" stroke-width="1" opacity="0.9803921568627451" d="M 129.5 96 L 131 96.5 L 124.5 100 L 126.5 97 L 129.5 96 Z " /><path fill="rgb(180,169,176)" stroke="rgb(180,169,176)" stroke-width="1" opacity="0.996078431372549" d="M 49.5 43 L 48.5 45 L 49.5 43 Z " /><path fill="rgb(180,169,176)" stroke="rgb(180,169,176)" stroke-width="1" opacity="0.996078431372549" d="M 63.5 49 L 64 51.5 L 63 51.5 L 63.5 49 Z " /><path fill="rgb(180,169,176)" stroke="rgb(180,169,176)" stroke-width="1" opacity="0.996078431372549" d="M 59.5 83 L 62 83.5 L 59.5 84 L 59.5 83 Z " /><path fill="rgb(180,169,176)" stroke="rgb(180,169,176)" stroke-width="1" opacity="0.996078431372549" d="M 52.5 86 L 50.5 89 L 52.5 86 Z " /><path fill="rgb(180,169,176)" stroke="rgb(180,169,176)" stroke-width="1" opacity="0.996078431372549" d="M 48.5 94 L 49 95.5 L 47.5 98 L 47 95.5 L 48.5 94 Z " /><path fill="rgb(180,169,176)" stroke="rgb(180,169,176)" stroke-width="1" opacity="0.996078431372549" d="M 74.5 94 L 75 99.5 L 73 98.5 L 74.5 94 Z " /><path fill="rgb(180,169,176)" stroke="rgb(180,169,176)" stroke-width="1" opacity="0.996078431372549" d="M 132.5 96 L 134 98.5 L 133 98.5 L 132.5 97 L 131 97.5 L 132.5 96 Z " /><path fill="rgb(180,169,176)" stroke="rgb(180,169,176)" stroke-width="1" opacity="0.996078431372549" d="M 68.5 97 L 69 100 L 67 99.5 L 68.5 97 Z " /><path fill="rgb(180,169,176)" stroke="rgb(180,169,176)" stroke-width="1" opacity="0.996078431372549" d="M 129.5 98 L 133 100.5 L 131 101 L 132 103.5 L 130 103.5 L 131 105.5 L 129 105.5 L 130 107.5 L 128 107.5 L 129 109.5 L 127 109.5 L 128 111.5 L 125 112.5 L 124 114.5 Q 126.8 116.2 122.5 118 Q 121.3 115.8 120 118.5 Q 120.8 120.8 118.5 120 L 114.5 126 L 112.5 125 L 111.5 128 L 109.5 128 L 108 128.5 L 108.5 130 L 106.5 129 L 106.5 131 L 104.5 130 L 104.5 132 L 102.5 133 L 99.5 132 L 99.5 134 L 96.5 133 L 96.5 135 L 92.5 134 L 92.5 135 L 94 135.5 L 90.5 136 Q 89.2 133.8 84.5 135 L 84.5 136 L 88 136.5 L 74.5 137 L 74.5 136 L 76 135.5 L 72.5 135 L 68.5 136 L 68.5 135 L 70 134.5 L 67.5 134 L 65.5 135 L 65.5 133 L 62.5 134 L 62.5 132 L 59.5 133 L 59.5 131 L 57.5 132 L 57.5 130 L 55.5 131 L 55.5 129 L 53.5 130 L 51.5 127 L 50 127.5 L 50.5 126 L 48.5 125 Q 46.8 127.7 45 123.5 L 45.5 122 L 42.5 120 L 39.5 116 Q 38.3 118.3 37 115.5 L 37 113.5 L 36.5 112 Q 35.3 114.3 34 111.5 L 35 109.5 L 33 109.5 L 33.5 108 L 32 107.5 L 33.5 106 L 38.5 111 L 53.5 120 L 68.5 123 L 78.5 123 L 91.5 120 L 101.5 115 L 113.5 105 L 116 104.5 L 115.5 103 L 119.5 104 L 119.5 102 L 122.5 103 L 122.5 101 L 125.5 102 L 125.5 100 L 127.5 101 L 127.5 99 L 129.5 98 Z " /><path fill="rgb(180,169,176)" stroke="rgb(180,169,176)" stroke-width="1" opacity="0.996078431372549" d="M 52.5 104 L 53.5 106 L 52.5 104 Z " /><path fill="rgb(180,169,176)" stroke="rgb(180,169,176)" stroke-width="1" opacity="0.996078431372549" d="M 66.5 104 L 64.5 107 L 66.5 104 Z " /><path fill="rgb(180,169,176)" stroke="rgb(180,169,176)" stroke-width="1" opacity="0.996078431372549" d="M 101.5 105 L 104 105.5 L 101.5 106 L 101.5 105 Z " /><path fill="rgb(180,169,176)" stroke="rgb(180,169,176)" stroke-width="1" opacity="0.996078431372549" d="M 82.5 106 L 90 106.5 L 81.5 108 L 82.5 106 Z " /><path fill="rgb(180,169,176)" stroke="rgb(180,169,176)" stroke-width="1" opacity="0.996078431372549" d="M 57.5 110 L 60 110.5 L 57.5 111 L 57.5 110 Z " /><path fill="rgb(180,169,176)" stroke="rgb(180,169,176)" stroke-width="1" opacity="0.996078431372549" d="M 78.5 112 L 76.5 115 L 78.5 112 Z " /><path fill="rgb(202,192,196)" stroke="rgb(202,192,196)" stroke-width="1" opacity="0.996078431372549" d="M 44.5 51 L 45 54.5 L 44 54.5 L 44.5 51 Z " /><path fill="rgb(202,192,196)" stroke="rgb(202,192,196)" stroke-width="1" opacity="0.996078431372549" d="M 50.5 61 L 55 61.5 L 50.5 62 L 50.5 61 Z " /><path fill="rgb(202,192,196)" stroke="rgb(202,192,196)" stroke-width="1" opacity="0.996078431372549" d="M 66.5 89 L 67.5 91 L 66.5 89 Z " /><path fill="rgb(202,192,196)" stroke="rgb(202,192,196)" stroke-width="1" opacity="0.996078431372549" d="M 50.5 96 L 51 99.5 L 50 99.5 L 50.5 96 Z " /><path fill="rgb(202,192,196)" stroke="rgb(202,192,196)" stroke-width="1" opacity="0.996078431372549" d="M 133.5 96 L 133 97.5 L 132.5 100 L 130.5 99 L 129 99.5 L 133.5 96 Z " /><path fill="rgb(202,192,196)" stroke="rgb(202,192,196)" stroke-width="1" opacity="0.996078431372549" d="M 66 98 L 68 98.5 L 68 100.5 L 66.5 104 L 66 101.5 L 66 99.5 L 66 98 Z " /><path fill="rgb(202,192,196)" stroke="rgb(202,192,196)" stroke-width="1" opacity="0.996078431372549" d="M 73.5 99 L 74 101.5 L 73 101.5 L 73.5 99 Z " /><path fill="rgb(202,192,196)" stroke="rgb(202,192,196)" stroke-width="1" opacity="0.996078431372549" d="M 126.5 100 L 128 100.5 L 124.5 102 L 124.5 101 L 126.5 100 Z " /><path fill="rgb(202,192,196)" stroke="rgb(202,192,196)" stroke-width="1" opacity="0.996078431372549" d="M 131.5 101 L 132 102.5 Q 126.8 114.8 117.5 123 L 116 122.5 L 120 120 L 127 110.5 L 131.5 101 Z " /><path fill="rgb(202,192,196)" stroke="rgb(202,192,196)" stroke-width="1" opacity="0.996078431372549" d="M 31 103 L 44.5 114 L 56 119.5 L 53.5 120 L 42.5 114 L 33.5 106 L 32 106.5 L 31 103 Z " /><path fill="rgb(202,192,196)" stroke="rgb(202,192,196)" stroke-width="1" opacity="0.996078431372549" d="M 117.5 103 L 120 103.5 L 117.5 104 L 117.5 103 Z " /><path fill="rgb(202,192,196)" stroke="rgb(202,192,196)" stroke-width="1" opacity="0.996078431372549" d="M 110.5 104 L 116 104.5 L 113.5 105 L 101.5 115 L 91.5 120 L 78.5 123 L 68.5 123 L 57 120.5 L 60.5 120 L 63.5 121 L 63.5 119 L 65.5 121 L 82.5 121 L 98.5 115 L 112 105.5 L 110.5 104 Z " /><path fill="rgb(202,192,196)" stroke="rgb(202,192,196)" stroke-width="1" opacity="0.996078431372549" d="M 90.5 106 L 96 106.5 L 90.5 107 L 90.5 106 Z " /><path fill="rgb(202,192,196)" stroke="rgb(202,192,196)" stroke-width="1" opacity="0.996078431372549" d="M 33.5 108 L 42.5 120 L 45.5 122 L 52 127.5 L 50.5 127 L 39 117.5 L 33.5 108 Z " /><path fill="rgb(202,192,196)" stroke="rgb(202,192,196)" stroke-width="1" opacity="0.996078431372549" d="M 114.5 124 L 113.5 126 L 104.5 131 L 104.5 130 L 114.5 124 Z " /><path fill="rgb(202,192,196)" stroke="rgb(202,192,196)" stroke-width="1" opacity="0.996078431372549" d="M 53.5 128 L 60 131.5 L 58.5 132 Q 53.9 130.8 53.5 128 Z " /><path fill="rgb(202,192,196)" stroke="rgb(202,192,196)" stroke-width="1" opacity="0.996078431372549" d="M 61.5 132 L 66 133.5 L 63.5 134 L 61.5 132 Z " /><path fill="rgb(202,192,196)" stroke="rgb(202,192,196)" stroke-width="1" opacity="0.996078431372549" d="M 99.5 132 L 102 132.5 L 96.5 134 L 96.5 133 L 99.5 132 Z " /><path fill="rgb(202,192,196)" stroke="rgb(202,192,196)" stroke-width="1" opacity="0.996078431372549" d="M 67.5 134 L 70 134.5 L 67.5 135 L 67.5 134 Z " /><path fill="rgb(202,192,196)" stroke="rgb(202,192,196)" stroke-width="1" opacity="0.996078431372549" d="M 92.5 134 L 95 134.5 L 92.5 135 L 92.5 134 Z " /><path fill="rgb(202,192,196)" stroke="rgb(202,192,196)" stroke-width="1" opacity="0.996078431372549" d="M 72.5 135 L 76 135.5 L 72.5 136 L 72.5 135 Z " /><path fill="rgb(202,192,196)" stroke="rgb(202,192,196)" stroke-width="1" opacity="0.996078431372549" d="M 84.5 135 L 90 135.5 L 84.5 136 L 84.5 135 Z " /></svg>